<?xml version="1.0" encoding="utf-8"?>
<!-- Generator: Adobe Illustrator 28.6.0, SVG Export Plug-In . SVG Version: 9.03 Build 54939)  -->
<svg version="1.1" baseProfile="tiny" id="med" xmlns="http://www.w3.org/2000/svg" xmlns:xlink="http://www.w3.org/1999/xlink"
	 x="0px" y="0px" viewBox="0 0 82.9 42.9" overflow="visible" xml:space="preserve">
<g>
	<path fill="#FBBC1A" d="M41.4,0.2c-22.6,0-41,18.4-41,41c0,0.8,0.7,1.5,1.5,1.5h79c0.8,0,1.5-0.7,1.5-1.5
		C82.4,18.6,64,0.2,41.4,0.2z M3.5,39.7C3.7,34,5.2,28.6,7.7,23.8l5.7,3.2c0.1,0,0.2,0.1,0.2,0.1c0,0,0.1,0,0.1,0
		c0.1,0,0.2-0.1,0.3-0.2c0.1-0.2,0.3-0.5,0.4-0.7c0.1-0.1,0.1-0.2,0.1-0.4s-0.1-0.2-0.2-0.3l-5.6-3.4c3.1-5.3,7.4-9.7,12.6-13
		l3.5,5.9c0.1,0.2,0.3,0.2,0.4,0.2c0.1,0,0.2,0,0.3-0.1c0.2-0.1,0.4-0.3,0.7-0.4c0.1-0.1,0.2-0.2,0.2-0.3c0-0.1,0-0.3,0-0.4l-3.4-6
		C28.4,5,34.7,3.2,41.4,3.2C48.2,3.2,54.5,5,60,8.1l-3.4,6c-0.1,0.1-0.1,0.3,0,0.4c0,0.1,0.1,0.2,0.2,0.3c0.2,0.1,0.5,0.3,0.7,0.4
		c0.1,0,0.2,0.1,0.3,0.1c0,0,0.1,0,0.1,0c0.1,0,0.2-0.1,0.3-0.2l3.5-5.9c5.2,3.3,9.5,7.7,12.6,13l-5.6,3.4c-0.1,0.1-0.2,0.2-0.2,0.3
		c0,0.1,0,0.3,0.1,0.4c0.1,0.2,0.3,0.4,0.4,0.7c0.1,0.1,0.2,0.2,0.3,0.2c0,0,0.1,0,0.1,0c0.1,0,0.2,0,0.2-0.1l5.7-3.2
		c2.5,4.8,4,10.2,4.2,15.9H3.5z"/>
	<path fill="#FBBC1A" d="M42.9,8.1c-0.1-0.7-0.8-1.2-1.5-1.2S40.1,7.4,40,8.1l-4,20.2c0,0.1,0,0.2,0,0.3c0,4.2,2.4,7.4,5.5,7.4
		s5.5-3.3,5.5-7.4c0-0.1,0-0.2,0-0.3L42.9,8.1z M41.4,33c-1.1,0-2.4-1.8-2.5-4.3l2.5-12.5l2.5,12.5C43.8,31.2,42.6,33,41.4,33z"/>
</g>
<g>
</g>
<g>
</g>
<g>
</g>
<g>
</g>
<g>
</g>
<g>
</g>
</svg>
