<?xml version="1.0" encoding="utf-8"?>
<!-- Generator: Adobe Illustrator 28.6.0, SVG Export Plug-In . SVG Version: 9.03 Build 54939)  -->
<svg version="1.1" baseProfile="tiny" id="low" xmlns="http://www.w3.org/2000/svg" xmlns:xlink="http://www.w3.org/1999/xlink"
	 x="0px" y="0px" viewBox="0 0 82.9 42.9" overflow="visible" xml:space="preserve">
<g>
	<path fill="#FABC1B" d="M41.4,0.2c-22.6,0-41,18.4-41,41c0,0.8,0.7,1.5,1.5,1.5h79c0.8,0,1.5-0.7,1.5-1.5
		C82.4,18.6,64,0.2,41.4,0.2z M3.5,39.7C3.7,34,5.2,28.6,7.7,23.8l5.7,3.2c0.1,0,0.2,0.1,0.2,0.1c0,0,0.1,0,0.1,0
		c0.1,0,0.2-0.1,0.3-0.2c0.1-0.2,0.3-0.5,0.4-0.7c0.1-0.1,0.1-0.2,0.1-0.4s-0.1-0.2-0.2-0.3l-5.6-3.4c3.1-5.3,7.4-9.7,12.6-13
		l3.5,5.9c0.1,0.2,0.3,0.2,0.4,0.2c0.1,0,0.2,0,0.3-0.1c0.2-0.1,0.4-0.3,0.7-0.4c0.1-0.1,0.2-0.2,0.2-0.3c0-0.1,0-0.3,0-0.4l-3.4-6
		c5.2-2.9,11.2-4.7,17.6-4.8l0.2,5.7c0,0.1,0.1,0.3,0.2,0.3c0.1,0.1,0.2,0.1,0.3,0.1c0,0,0,0,0,0c0.3,0,0.5,0,0.8,0
		c0.1,0,0.3-0.1,0.4-0.1s0.1-0.2,0.1-0.4l0-5.7C48.8,3.4,54.8,5.1,60,8.1l-3.4,6c-0.1,0.1-0.1,0.3,0,0.4c0,0.1,0.1,0.2,0.2,0.3
		c0.2,0.1,0.5,0.3,0.7,0.4c0.1,0,0.2,0.1,0.3,0.1c0,0,0.1,0,0.1,0c0.1,0,0.2-0.1,0.3-0.2l3.5-5.9c5.2,3.3,9.5,7.7,12.6,13l-5.6,3.4
		c-0.1,0.1-0.2,0.2-0.2,0.3c0,0.1,0,0.3,0.1,0.4c0.1,0.2,0.3,0.4,0.4,0.7c0.1,0.1,0.2,0.2,0.3,0.2c0,0,0.1,0,0.1,0
		c0.1,0,0.2,0,0.2-0.1l5.7-3.2c2.5,4.8,4,10.2,4.2,15.9H3.5z"/>
	<path fill="#FABC1B" d="M38.6,24.6c-0.1,0-0.2-0.1-0.3-0.1l-19.5-6.7c-0.7-0.2-1.4,0-1.8,0.7c-0.4,0.6-0.2,1.4,0.3,1.9L33,33.9
		c0.1,0.1,0.2,0.1,0.2,0.2c1.5,0.9,3.1,1.3,4.6,1.3c0.2,0,0.3,0,0.5,0c1.8-0.1,3.3-1,4.1-2.3C43.9,30.4,42.3,26.7,38.6,24.6z
		 M39.8,31.6c-0.4,0.6-1.2,0.8-1.7,0.8c-1,0.1-2.2-0.2-3.3-0.8l-9.6-8.4l12.1,4.1C39.4,28.6,40.3,30.6,39.8,31.6z"/>
</g>
<g>
</g>
<g>
</g>
<g>
</g>
<g>
</g>
<g>
</g>
<g>
</g>
</svg>
