<?xml version="1.0" encoding="utf-8"?>
<!-- Generator: Adobe Illustrator 29.1.0, SVG Export Plug-In . SVG Version: 9.03 Build 55587)  -->
<svg version="1.1" baseProfile="tiny" id="outlined_versions"
	 xmlns="http://www.w3.org/2000/svg" xmlns:xlink="http://www.w3.org/1999/xlink" x="0px" y="0px" viewBox="0 0 42.5 42.9"
	 overflow="visible" xml:space="preserve">
<g>
	<g>
		<path fill="#FBBC1A" d="M21.2,42.7C9.5,42.7,0,33.2,0,21.4C0,9.7,9.5,0.2,21.2,0.2s21.3,9.5,21.3,21.3
			C42.5,33.2,33,42.7,21.2,42.7z M21.2,3.2C11.2,3.2,3,11.4,3,21.4c0,10.1,8.2,18.3,18.3,18.3s18.3-8.2,18.3-18.3
			C39.5,11.4,31.3,3.2,21.2,3.2z"/>
	</g>
	<g>
		<path fill="#FBBC1A" d="M21.2,33.7c-4.2,0-8-2.3-9.9-6.1c-0.4-0.7-0.1-1.6,0.7-2c0.7-0.4,1.6-0.1,2,0.7c1.4,2.8,4.1,4.4,7.3,4.4
			s5.8-1.7,7.3-4.4c0.4-0.7,1.3-1,2-0.7c0.7,0.4,1,1.3,0.7,2C29.3,31.4,25.5,33.7,21.2,33.7z"/>
	</g>
	<g>
		<g>
			<path fill="#FBBC1A" d="M12.6,20.1c-1.5,0-2.7-1.2-2.7-2.7s1.2-2.7,2.7-2.7c1.5,0,2.7,1.2,2.7,2.7S14.1,20.1,12.6,20.1z"/>
		</g>
		<g>
			<path fill="#FBBC1A" d="M29.9,20.1c-1.5,0-2.7-1.2-2.7-2.7s1.2-2.7,2.7-2.7c1.5,0,2.7,1.2,2.7,2.7S31.3,20.1,29.9,20.1z"/>
		</g>
	</g>
</g>
</svg>
