<svg width="50" height="50" viewBox="0 0 50 50" fill="none" xmlns="http://www.w3.org/2000/svg">
<mask id="mask0_0_2822" style="mask-type:luminance" maskUnits="userSpaceOnUse" x="0" y="0" width="50" height="50">
<path fill-rule="evenodd" clip-rule="evenodd" d="M0 0H49.0196V49.0196H0V0Z" fill="white"/>
</mask>
<g mask="url(#mask0_0_2822)">
<path fill-rule="evenodd" clip-rule="evenodd" d="M49.0195 24.5095C49.0195 38.0465 38.0455 49.0206 24.5086 49.0206C10.9735 49.0206 -0.000488281 38.0465 -0.000488281 24.5095C-0.000488281 10.9724 10.9735 0 24.5086 0C38.0455 0 49.0195 10.9724 49.0195 24.5095" fill="#2A72A5"/>
</g>
<path fill-rule="evenodd" clip-rule="evenodd" d="M9.80371 39.4846C13.4784 43.5308 18.7169 46.0784 24.552 46.0784C30.3888 46.0784 35.6289 43.5308 39.302 39.4846V17.2732C39.302 15.3221 37.7349 13.7255 35.8214 13.7255H13.2843C11.3708 13.7255 9.80371 15.3221 9.80371 17.2732V39.4846Z" fill="white"/>
<path fill-rule="evenodd" clip-rule="evenodd" d="M33.1817 22.549H15.8382C15.2156 22.549 14.7061 22.1081 14.7061 21.5679C14.7061 21.0292 15.2156 20.5882 15.8382 20.5882H33.1817C33.8043 20.5882 34.3139 21.0292 34.3139 21.5679C34.3139 22.1081 33.8043 22.549 33.1817 22.549" fill="#2A72A5"/>
<path fill-rule="evenodd" clip-rule="evenodd" d="M33.1817 29.4118H15.8382C15.2156 29.4118 14.7061 28.9708 14.7061 28.4321C14.7061 27.8919 15.2156 27.451 15.8382 27.451H33.1817C33.8043 27.451 34.3139 27.8919 34.3139 28.4321C34.3139 28.9708 33.8043 29.4118 33.1817 29.4118" fill="#2A72A5"/>
<path fill-rule="evenodd" clip-rule="evenodd" d="M33.1341 36.2745H26.6716C26.0212 36.2745 25.4902 35.8336 25.4902 35.2948C25.4902 34.7546 26.0212 34.3137 26.6716 34.3137H33.1341C33.7828 34.3137 34.3138 34.7546 34.3138 35.2948C34.3138 35.8336 33.7828 36.2745 33.1341 36.2745" fill="#2A72A5"/>
</svg>
