<svg width="50" height="50" viewBox="0 0 50 50" fill="none" xmlns="http://www.w3.org/2000/svg">
<path fill-rule="evenodd" clip-rule="evenodd" d="M49.0926 24.5471C49.0926 38.103 38.103 49.0926 24.5471 49.0926C10.9896 49.0926 0 38.103 0 24.5471C0 10.9896 10.9896 0 24.5471 0C38.103 0 49.0926 10.9896 49.0926 24.5471" fill="#2A72A5"/>
<path fill-rule="evenodd" clip-rule="evenodd" d="M33.1475 26.4238V22.774C33.1475 18.9944 30.5817 15.79 27.0628 14.7341C27.0464 14.7293 27.0365 14.7149 27.0365 14.7005V13.651C27.0365 12.4702 26.2212 11.3823 25.0334 11.158C23.4389 10.8568 22.0378 12.0472 22.0378 13.5533V14.7005C22.0378 14.7149 22.0264 14.7293 22.0116 14.7341C18.491 15.79 15.9252 18.9944 15.9252 22.774V26.4222C15.9252 29.4295 14.3684 32.0667 12.2619 34.2633C11.9896 34.5469 11.9551 34.9891 12.2111 35.3176C12.3702 35.5211 12.6245 35.6332 12.8886 35.6332H20.4252C20.4416 35.6332 20.4564 35.6444 20.4596 35.6605C20.8583 37.503 22.5349 38.8889 24.5364 38.8889C26.5395 38.8889 28.2161 37.503 28.6131 35.6605C28.618 35.6444 28.6311 35.6332 28.6475 35.6332H36.1858C36.4483 35.6332 36.7025 35.5211 36.8633 35.3176C37.1192 34.9891 37.0848 34.5469 36.8108 34.2633C34.7044 32.0683 33.1475 29.4311 33.1475 26.4238" fill="white"/>
<path fill-rule="evenodd" clip-rule="evenodd" d="M25.4639 38.8889C27.502 38.8889 29.1997 37.3035 29.6297 35.1852H21.2964C21.728 37.3035 23.4257 38.8889 25.4639 38.8889" fill="white"/>
</svg>
