<svg width="50" height="51" viewBox="0 0 50 51" fill="none" xmlns="http://www.w3.org/2000/svg">
<mask id="mask0_0_2853" style="mask-type:luminance" maskUnits="userSpaceOnUse" x="0" y="0" width="50" height="51">
<path fill-rule="evenodd" clip-rule="evenodd" d="M0 0.927917H49.091V50.0194H0V0.927917Z" fill="white"/>
</mask>
<g mask="url(#mask0_0_2853)">
<path fill-rule="evenodd" clip-rule="evenodd" d="M49.0912 25.4745C49.0912 39.0295 38.1012 50.0195 24.5462 50.0195C10.9895 50.0195 -0.000488281 39.0295 -0.000488281 25.4745C-0.000488281 11.9178 10.9895 0.927795 24.5462 0.927795C38.1012 0.927795 49.0912 11.9178 49.0912 25.4745" fill="#2A72A5"/>
</g>
<path fill-rule="evenodd" clip-rule="evenodd" d="M33.2537 36.2941H19.5108C18.4822 36.2941 17.647 35.4578 17.647 34.4255V28.451H36.2744V33.2627C36.2744 34.9372 34.9223 36.2941 33.2537 36.2941" fill="white"/>
<path fill-rule="evenodd" clip-rule="evenodd" d="M19.9042 16.8135C18.7323 16.8135 17.7785 17.7636 17.7785 18.9309V34.0495C17.7785 35.2168 18.7323 36.1669 19.9042 36.1669H33.0366C34.2085 36.1669 35.1624 35.2168 35.1624 34.0495V18.9309C35.1624 17.7636 34.2085 16.8135 33.0366 16.8135H19.9042ZM33.0366 37.2745H19.9042C18.1197 37.2745 16.6665 35.827 16.6665 34.0495V18.9309C16.6665 17.1534 18.1197 15.7059 19.9042 15.7059H33.0366C34.8228 15.7059 36.2743 17.1534 36.2743 18.9309V34.0495C36.2743 35.827 34.8228 37.2745 33.0366 37.2745V37.2745Z" fill="white"/>
<path fill-rule="evenodd" clip-rule="evenodd" d="M35.5318 19.6275H17.408C15.9217 19.6275 14.7061 18.366 14.7061 16.8257V16.5469C14.7061 15.0066 15.9217 13.7451 17.408 13.7451H35.5318C37.0198 13.7451 38.2355 15.0066 38.2355 16.5469V16.8257C38.2355 18.366 37.0198 19.6275 35.5318 19.6275" fill="white"/>
<path fill-rule="evenodd" clip-rule="evenodd" d="M11.3081 26.7389L9.69025 23.7446C9.55228 23.4875 9.16464 23.4828 9.01846 23.7368L7.23796 26.837L7.06386 27.1704C7.05893 27.1829 7.05072 27.1938 7.04579 27.2047C6.9111 27.5178 6.8454 27.8652 6.86676 28.2298C6.94231 29.4122 7.99681 30.3782 9.24513 30.4109C10.6298 30.4467 11.7648 29.3936 11.7648 28.0865C11.7648 27.5833 11.5939 27.119 11.3081 26.7389" fill="white"/>
<path fill-rule="evenodd" clip-rule="evenodd" d="M35.294 33.3529H28.1831C25.6137 33.3529 23.5293 31.2626 23.5293 28.6822V28.2181C23.5293 25.6394 25.6137 23.549 28.1831 23.549H35.294V33.3529Z" fill="white"/>
<path fill-rule="evenodd" clip-rule="evenodd" d="M28.8923 27.9098H32.8708C33.4865 27.9098 33.488 26.051 32.8708 26.051H28.8923C28.2782 26.051 28.2767 27.9098 28.8923 27.9098" fill="#2973A4"/>
<path fill-rule="evenodd" clip-rule="evenodd" d="M28.8923 31.8314H32.8708C33.4865 31.8314 33.488 29.9726 32.8708 29.9726H28.8923C28.2782 29.9726 28.2767 31.8314 28.8923 31.8314" fill="#2973A4"/>
</svg>
