<svg width="50" height="50" viewBox="0 0 50 50" fill="none" xmlns="http://www.w3.org/2000/svg">
<mask id="mask0_0_2820" style="mask-type:luminance" maskUnits="userSpaceOnUse" x="0" y="0" width="50" height="50">
<path fill-rule="evenodd" clip-rule="evenodd" d="M0 0.909363H49.0908V50H0V0.909363Z" fill="white"/>
</mask>
<g mask="url(#mask0_0_2820)">
<path fill-rule="evenodd" clip-rule="evenodd" d="M49.0907 25.4544C49.0907 39.011 38.1024 50.001 24.5457 50.001C10.989 50.001 -0.000976562 39.011 -0.000976562 25.4544C-0.000976562 11.8977 10.989 0.909363 24.5457 0.909363C38.1024 0.909363 49.0907 11.8977 49.0907 25.4544" fill="#2A72A5"/>
</g>
<path fill-rule="evenodd" clip-rule="evenodd" d="M9.25928 39.5027C13.064 43.6714 18.4919 46.2963 24.5362 46.2963C30.5822 46.2963 36.0085 43.6714 39.8148 39.5027V16.6182C39.8148 14.6079 38.1916 12.963 36.2078 12.963H12.8646C10.8825 12.963 9.25928 14.6079 9.25928 16.6182V39.5027Z" fill="white"/>
<path fill-rule="evenodd" clip-rule="evenodd" d="M16.5804 22.2257C17.8053 22.1313 17.9818 24.0033 16.7612 24.0741C16.2198 24.0741 15.786 23.8231 15.744 23.2406C15.7053 22.6977 16.025 22.2686 16.5804 22.2257M16.7822 25C17.8645 24.9382 18.5581 24.101 18.5169 23.033C18.4743 21.9498 17.6036 21.2556 16.5515 21.2982C15.4692 21.3422 14.7742 22.2109 14.8168 23.2653C14.8635 24.3801 15.7301 25 16.7822 25" fill="#2973A4"/>
<path fill-rule="evenodd" clip-rule="evenodd" d="M16.5515 29.6315C15.4692 29.6755 14.7742 30.5456 14.8168 31.5986C14.8635 32.7134 15.7301 33.3333 16.7822 33.3333C17.8645 33.2715 18.5581 32.4357 18.5169 31.3676C18.4743 30.2844 17.6036 29.5889 16.5515 29.6315" fill="#2A72A5"/>
<path fill-rule="evenodd" clip-rule="evenodd" d="M33.1659 22.2222H22.3914C21.7885 22.2222 21.2964 22.6387 21.2964 23.1475C21.2964 23.6577 21.7885 24.0741 22.3914 24.0741H33.1659C33.7672 24.0741 34.2593 23.6577 34.2593 23.1475C34.2593 22.6387 33.7672 22.2222 33.1659 22.2222" fill="#2A72A5"/>
<path fill-rule="evenodd" clip-rule="evenodd" d="M33.1659 30.5555H22.3914C21.7885 30.5555 21.2964 30.972 21.2964 31.4808C21.2964 31.991 21.7885 32.4074 22.3914 32.4074H33.1659C33.7672 32.4074 34.2593 31.991 34.2593 31.4808C34.2593 30.972 33.7672 30.5555 33.1659 30.5555" fill="#2973A4"/>
</svg>
