<svg width="50" height="50" viewBox="0 0 50 50" fill="none" xmlns="http://www.w3.org/2000/svg">
<mask id="mask0_0_2825" style="mask-type:luminance" maskUnits="userSpaceOnUse" x="0" y="0" width="50" height="50">
<path fill-rule="evenodd" clip-rule="evenodd" d="M0 0H49.0196V49.0196H0V0Z" fill="white"/>
</mask>
<g mask="url(#mask0_0_2825)">
<path fill-rule="evenodd" clip-rule="evenodd" d="M49.0195 24.51C49.0195 38.0467 38.0455 49.0206 24.5086 49.0206C10.9735 49.0206 -0.000488281 38.0467 -0.000488281 24.51C-0.000488281 10.9732 10.9735 -0.000671387 24.5086 -0.000671387C38.0455 -0.000671387 49.0195 10.9732 49.0195 24.51" fill="#2A72A5"/>
</g>
<path fill-rule="evenodd" clip-rule="evenodd" d="M31.2525 12.0713C30.5052 11.246 29.4648 10.7843 28.3353 10.7843C27.0738 10.7843 25.9734 11.3762 25.1679 12.4908C25.1096 12.577 25.0496 12.6649 24.9913 12.7377C24.9485 12.6649 24.8902 12.577 24.8302 12.4908C24.0247 11.3762 22.9243 10.7843 21.6628 10.7843C20.5196 10.7843 19.4946 11.246 18.7456 12.0713C18.0412 12.8527 17.647 13.908 17.647 15.0225C17.647 16.2368 18.1303 17.3666 19.157 18.5673C20.05 19.6091 21.3406 20.6797 22.8369 21.9227C23.3785 22.3726 23.951 22.8495 24.5526 23.3704C24.6828 23.4719 24.8457 23.5294 24.9913 23.5294C25.1525 23.5294 25.3153 23.4719 25.4318 23.3704C26.0472 22.8495 26.6196 22.3726 27.1612 21.9227C28.1142 21.1279 28.9506 20.4328 29.6688 19.7681C31.0622 18.4659 32.3529 16.9894 32.3529 15.0225C32.3529 13.908 31.9569 12.8527 31.2525 12.0713" fill="white"/>
<path fill-rule="evenodd" clip-rule="evenodd" d="M36.5924 29.4593L32.9974 34.2541C32.2979 35.2 31.1918 35.7545 30.0205 35.7545H23.3511C21.9326 35.7545 20.5207 35.562 19.1543 35.1804L18.8127 35.0858L14.5019 34.7303C14.2417 34.7107 14.0416 34.4922 14.0416 34.2296V31.9399C14.0416 31.6218 14.2921 31.3658 14.6109 31.3674C15.4731 31.3739 16.9664 31.1244 18.8127 29.3614L19.3332 28.9048C19.382 28.8559 19.4308 28.8232 19.4959 28.7906C20.8769 27.6914 22.8176 27.7126 24.1807 28.8232C24.8688 29.3843 25.6838 29.7692 26.572 29.7692H30.0205C30.4272 29.7692 30.7688 30.0953 30.7688 30.5194C30.7688 30.9271 30.4272 31.2696 30.0205 31.2696H24.7175C24.2946 31.2696 23.9693 31.5957 23.9693 32.0198C23.9693 32.4275 24.2946 32.7537 24.7175 32.7537H30.5248C31.143 32.7537 31.7286 32.4927 32.1515 32.0524L35.4374 28.5134C35.5838 28.3503 35.779 28.2687 35.9905 28.2687C36.3972 28.2687 36.7388 28.6112 36.7388 29.0189C36.7388 29.182 36.69 29.3288 36.5924 29.4593M35.9905 26.7683C35.3723 26.7683 34.7705 27.0293 34.3475 27.4859L32.1515 29.8507C31.875 28.9374 31.0128 28.2687 30.0205 28.2687H26.572C26.084 28.2687 25.6285 28.0893 25.2543 27.7795C23.3023 26.0507 20.3743 26.0344 18.406 27.7306C18.406 27.7306 16.6817 29.7202 15.1363 29.9322C14.4434 30.0268 13.8952 30.079 13.4983 30.1067C13.0721 30.1394 12.7451 30.49 12.7451 30.9189V35.1951C12.7451 35.6615 13.1046 36.0448 13.5698 36.0676C14.9037 36.1296 17.4658 36.2747 18.2596 36.4884L18.6988 36.6025C20.3645 37.0364 22.0807 37.2549 23.8017 37.2549H30.0205C31.6472 37.2549 33.2088 36.4721 34.2011 35.1511L37.7798 30.3726V30.3563C38.0726 29.9812 38.2353 29.5082 38.2353 29.0189C38.2353 27.7795 37.2268 26.7683 35.9905 26.7683" fill="white"/>
</svg>
